<?xml version="1.0" encoding="utf-8"?>
<!-- Generator: Adobe Illustrator 19.0.0, SVG Export Plug-In . SVG Version: 6.00 Build 0)  -->
<svg version="1.1" id="layer" xmlns="http://www.w3.org/2000/svg" xmlns:xlink="http://www.w3.org/1999/xlink" x="0px" y="0px"
	 viewBox="-153 -46 652 652" style="enable-background:new -153 -46 652 652;" xml:space="preserve">
<g>
	<path d="M-84.7,305.3c-8.9,0-16.3-2.9-22.3-8.9s-8.9-13.4-8.9-22.4c0-9,2.9-16.5,8.9-22.4c5.9-6,13.4-9,22.3-9
		c9.7,0,17.8,3.5,24.2,10.8l10.8-9.2c-9.2-10.5-20.9-15.8-34.9-15.8c-13,0-24.2,4.3-33.3,13c-9,8.7-13.5,19.6-13.5,32.7
		c0,13,4.6,23.9,13.5,32.7c9.1,8.6,20.2,12.9,33.3,12.9c13.8,0,26.4-6,35-16.1l-10.6-9.2C-66.5,301.6-74.7,305.3-84.7,305.3"/>
	<path d="M451.9,306.3c0-1.5,1.2-2.8,2.8-2.8s2.8,1.2,2.8,2.8c0,1.5-1.2,2.8-2.8,2.8C453.2,309,451.9,307.8,451.9,306.3L451.9,306.3
		 M447.1,303.4l-7.2,1.9c0,0.6,0,1.3,0,1.9l7.2,1.9c0.6,0.2,0.8,0.8,0.6,1.3l-2.9,6.8c0.5,0.4,1,0.8,1.5,1.2l6-4.4
		c0.4-0.3,1-0.2,1.3,0.2c0,0,0,0.1,0.1,0.1l3.5,6.5c0.3,0,0.6-0.1,0.9-0.2c0.3-0.1,0.6-0.2,0.9-0.3l0.3-7.4c0-0.5,0.5-0.9,1-0.9
		c0,0,0.1,0,0.1,0l7.3,1.4c0.3-0.6,0.6-1.1,0.8-1.7l-5.6-4.9c-0.4-0.3-0.4-0.9-0.1-1.3c0,0,0.1-0.1,0.1-0.1l5.6-4.8
		c-0.2-0.6-0.5-1.2-0.8-1.7l-7.3,1.4c-0.5,0.1-1-0.2-1.1-0.7c0,0,0-0.1,0-0.1l-0.3-7.4c-0.6-0.2-1.2-0.3-1.9-0.4l-3.5,6.5
		c-0.2,0.5-0.8,0.6-1.3,0.4c0,0-0.1,0-0.1-0.1l-6-4.4c-0.5,0.4-1,0.8-1.5,1.2l2.9,6.8c0.2,0.5,0,1-0.5,1.2
		C447.2,303.3,447.1,303.4,447.1,303.4"/>
	<path d="M28.7,296.6c-5.9,5.9-13.3,9-22,9s-16.2-3-22.1-9c-5.9-6-8.9-13.4-8.9-22.4c0-8.9,2.9-16.3,8.9-22.4
		c5.9-6.1,13.4-9.1,22.1-9.1s16.1,3,22,9.1s9,13.5,9,22.4C37.7,283,34.6,290.5,28.7,296.6 M6.7,228.3c-13,0-24,4.4-33,13.3
		c-9,8.7-13.5,19.6-13.5,32.5c0,12.9,4.6,23.8,13.5,32.5s20,13.2,33,13.2s24.2-4.4,33.1-13.2c9-8.7,13.5-19.6,13.5-32.5
		c0-12.9-4.6-23.8-13.7-32.5C30.7,232.8,19.7,228.3,6.7,228.3"/>
	<path d="M148,290.7l-19.7-60h-13.8l-19.7,60l-21.1-60H57.2l30.3,86.8h14.2l19.6-59.7l19.5,59.7h14.4l30.3-86.8h-16.4L148,290.7z
		 M234.8,303.5h-18v-24.7h17.9c8.2,0,14.2,5.2,14.2,12.2C248.8,298.2,242.9,303.5,234.8,303.5L234.8,303.5z M216.8,244.9h14.3
		c6.7,0,11.5,4.4,11.5,10.2c0,6.4-4.8,10.7-11.6,10.7h-14.2L216.8,244.9z M246.8,270.4c7.2-2.6,11.5-9.1,11.5-17.4
		c0-6.4-2.4-11.7-7.3-15.8c-4.8-4.2-10.7-6.4-17.8-6.4h-32.5v86.8h36.9c7.9,0,14.3-2.4,19.5-7.2c5.3-4.9,7.9-11.1,7.9-18.4
		C264.8,280.9,258.3,272.4,246.8,270.4L246.8,270.4z"/>
	<path d="M345.5,296.6c-5.9,5.9-13.3,9-22,9c-8.7,0-16.2-3-22.1-9c-5.9-6-8.9-13.4-8.9-22.4c0-8.9,2.9-16.3,8.9-22.4
		c5.9-6.1,13.4-9.1,22.1-9.1s16.1,3,22,9.1c5.9,6.1,9,13.5,9,22.4C354.5,283,351.4,290.5,345.5,296.6 M323.5,228.3
		c-13,0-24,4.4-33,13.3c-9,8.7-13.5,19.6-13.5,32.5c0,12.9,4.6,23.8,13.5,32.5c9,8.7,20,13.2,33,13.2c13,0,24.2-4.4,33.1-13.2
		c9-8.7,13.5-19.6,13.5-32.5c0-12.9-4.6-23.8-13.7-32.5C347.5,232.8,336.5,228.3,323.5,228.3"/>
	<path d="M439.7,230.8l-25.8,42.8l-25.9-42.8h-17.4l34.5,56.6l-18.2,30.3h17.7l17.5-28.7l35.4-58.1H439.7z"/>
</g>
</svg>
