<svg width="867" height="557" viewBox="0 0 867 557" fill="none" xmlns="http://www.w3.org/2000/svg">
<path d="M458.213 464.37C458.317 475.072 451.992 478.87 444.145 478.946C443.963 478.948 443.781 478.948 443.601 478.945C443.237 478.941 442.877 478.928 442.52 478.906C435.433 478.474 429.892 474.6 429.795 464.647C429.694 454.348 442.731 441.222 443.709 440.251L443.711 440.25C443.748 440.213 443.767 440.195 443.767 440.195C443.767 440.195 458.109 453.67 458.213 464.37Z" fill="#00B0FF"/>
<path d="M682.537 463.769C682.641 474.47 676.316 478.268 668.469 478.345C668.286 478.347 668.105 478.346 667.925 478.344C667.561 478.34 667.201 478.327 666.844 478.305C659.757 477.873 654.216 473.998 654.119 464.046C654.018 453.747 667.055 440.62 668.033 439.65L668.035 439.649C668.072 439.612 668.091 439.593 668.091 439.593C668.091 439.593 682.433 453.068 682.537 463.769Z" fill="#00B0FF"/>
<path d="M848 479H356V480H848V479Z" fill="#3F3D56"/>
<path d="M460.043 276.666C515.179 276.666 559.876 231.97 559.876 176.833C559.876 121.697 515.179 77 460.043 77C404.907 77 360.21 121.697 360.21 176.833C360.21 231.97 404.907 276.666 460.043 276.666Z" fill="#00B0FF"/>
<path d="M581.527 388.528H581.527C605.452 388.528 628.398 398.032 645.315 414.95C662.233 431.868 671.738 454.813 671.738 478.738V478.738H530.407V439.647C530.407 426.089 535.793 413.087 545.38 403.5C554.967 393.913 567.969 388.528 581.527 388.528Z" fill="#3F3D56"/>
<path d="M777.525 269.485C777.525 269.485 781.64 322.984 775.878 324.631C770.117 326.277 749.54 338.623 716.618 335.33C716.618 335.33 684.518 352.615 689.457 336.153C694.395 319.692 716.618 323.807 716.618 323.807C716.618 323.807 756.125 315.577 757.771 309.815C759.417 304.054 752.833 280.185 755.302 279.362C757.771 278.539 777.525 269.485 777.525 269.485Z" fill="#A0616A"/>
<path d="M728.224 362.761C728.224 362.761 731.433 440.052 736.371 451.575C740.485 461.173 742.885 492.471 743.572 502.66C743.71 504.703 743.779 505.897 743.779 505.897C743.779 505.897 756.948 505.897 757.771 502.605C758.594 499.312 761.063 463.097 757.771 451.575C754.479 440.052 761.97 360.292 761.97 360.292L728.224 362.761Z" fill="#2F2E41"/>
<path d="M747.071 501.781C747.071 501.781 738.84 504.251 737.194 507.543C735.548 510.835 708.387 516.597 716.618 520.712C724.848 524.827 749.54 517.42 749.54 517.42C749.54 517.42 762.709 516.597 761.886 511.658C761.063 506.72 758.066 500.635 758.066 500.635L747.071 501.781Z" fill="#2F2E41"/>
<path d="M770.117 510.643C770.117 510.643 761.886 513.112 760.24 516.404C758.594 519.697 731.433 525.458 739.664 529.573C747.894 533.689 772.586 526.281 772.586 526.281C772.586 526.281 785.755 525.458 784.932 520.52C784.109 515.581 781.112 509.497 781.112 509.497L770.117 510.643Z" fill="#2F2E41"/>
<path d="M735.548 360.845L747.071 380.599L766.302 449.278C766.302 449.278 764.355 512.289 766.825 512.289C769.294 512.289 782.463 516.404 783.286 512.289C783.981 508.813 793.2 475.513 788.605 453.348C785.616 439.339 783.693 425.125 782.853 410.825L780.817 372.368C780.817 372.368 789.047 357.553 779.994 355.084C770.94 352.615 735.548 360.845 735.548 360.845Z" fill="#2F2E41"/>
<path d="M746.248 234.094C757.158 234.094 766.002 225.25 766.002 214.34C766.002 203.43 757.158 194.586 746.248 194.586C735.338 194.586 726.494 203.43 726.494 214.34C726.494 225.25 735.338 234.094 746.248 234.094Z" fill="#A0616A"/>
<path d="M743.779 227.509C743.779 227.509 747.071 253.847 746.248 255.493C745.425 257.139 766.002 237.386 766.002 237.386C766.002 237.386 758.594 225.863 760.24 220.101L743.779 227.509Z" fill="#A0616A"/>
<path d="M789.87 253.847C789.87 253.847 766.825 237.386 766.002 234.094L748.717 248.909L745.78 245.413C745.78 245.413 732.256 258.785 732.256 264.547C732.256 270.308 731.433 287.593 733.902 292.531C736.371 297.469 726.494 360.022 726.494 360.022C726.494 360.022 734.725 367.43 735.548 368.253C736.371 369.076 769.294 363.315 769.294 363.315C769.294 363.315 785.755 361.668 785.755 359.199C785.755 356.73 780.817 319.692 782.463 309.815C784.109 299.939 789.87 253.847 789.87 253.847Z" fill="#575A89"/>
<path d="M794.809 276.893C794.809 276.893 798.924 330.392 793.163 332.038C787.401 333.684 766.825 346.03 733.902 342.738C733.902 342.738 701.803 360.022 706.741 343.561C711.679 327.1 733.902 331.215 733.902 331.215C733.902 331.215 773.409 322.984 775.055 317.223C776.701 311.462 770.117 287.593 772.586 286.77C775.055 285.947 794.809 276.893 794.809 276.893Z" fill="#A0616A"/>
<path d="M737.81 204.472C740.51 203.511 743.489 203.018 746.242 203.814C750.139 204.942 752.838 208.357 755.748 211.183C758.659 214.008 762.741 216.511 766.573 215.183C766.342 213.522 766.778 211.836 767.786 210.496C768.286 209.996 768.656 209.38 768.862 208.704C769.026 207.646 768.136 206.733 767.87 205.697C767.402 203.88 768.684 201.392 767.108 200.374C766.692 200.105 766.165 200.044 765.76 199.76C764.167 198.647 765.936 195.878 764.882 194.244C764.567 193.822 764.157 193.48 763.685 193.246C756.048 188.789 746.708 188.777 737.866 188.889C736.635 188.905 734.922 189.516 735.269 190.697C733.598 189.498 731.41 191.182 730.063 192.737L727.306 195.919C726.011 197.302 724.88 198.832 723.937 200.476C723.095 202.086 722.909 204.562 724.585 205.264C723.339 204.742 721.827 212.123 727.571 210.909C730.909 210.203 734.18 205.764 737.81 204.472Z" fill="#2F2E41"/>
<path d="M776.701 255.493L789.87 253.847C789.87 253.847 803.039 279.362 795.632 283.477C788.224 287.593 769.294 290.885 769.294 289.239C769.294 287.593 776.701 255.493 776.701 255.493Z" fill="#575A89"/>
<path d="M596.216 261.092C596.216 261.092 600.144 274 597.899 277.928C595.655 281.857 601.828 290.275 611.93 286.346C622.031 282.418 622.593 277.928 622.593 277.928C622.593 277.928 618.664 271.755 617.542 258.847L596.216 261.092Z" fill="#FFB9B9"/>
<path d="M544.865 387.644C544.865 387.644 524.662 397.746 533.641 411.215C538.86 419.044 548.82 434.268 556.246 445.645C562.461 455.166 567.227 465.558 570.389 476.48L571.803 481.366L577.415 488.101L589.201 474.632C589.201 474.632 571.803 442.643 571.803 436.47C571.803 430.296 557.773 410.654 557.773 410.654L571.803 401.675C571.803 401.675 556.089 383.716 544.865 387.644Z" fill="#FFB9B9"/>
<path d="M610.527 422.439C610.527 422.439 611.088 438.153 611.649 444.326C612.112 449.419 607.609 463.68 609.171 479.544C610.123 489.808 610.009 500.143 608.83 510.383L606.598 530.752L623.434 532.436L629.046 486.417C629.046 486.417 632.414 453.867 630.73 443.204L631.291 420.756C631.291 420.756 618.945 416.266 610.527 422.439Z" fill="#FFB9B9"/>
<path d="M580.502 357.058C580.502 357.058 541.217 382.313 540.656 390.17C540.656 390.17 563.105 387.925 563.666 407.567C563.666 407.567 577.135 402.516 580.502 401.394C583.869 400.272 601.828 388.486 601.828 388.486C601.828 388.486 609.124 394.098 609.124 403.078C609.124 412.057 608.562 427.771 609.124 428.893C609.685 430.016 622.593 413.741 633.256 427.771L640.551 389.047C640.551 389.047 642.796 365.477 638.306 363.793L606.879 352.008L580.502 357.058Z" fill="#2F2E41"/>
<path d="M604.353 268.107C613.652 268.107 621.19 260.569 621.19 251.271C621.19 241.972 613.652 234.434 604.353 234.434C595.055 234.434 587.517 241.972 587.517 251.271C587.517 260.569 595.055 268.107 604.353 268.107Z" fill="#FFB9B9"/>
<path d="M600.144 280.734C600.144 280.734 619.135 285.75 621.705 276.227C621.705 276.227 645.041 280.734 648.969 295.887C652.898 311.039 639.429 347.518 639.429 348.64C639.429 349.763 650.653 356.497 645.602 359.865C640.551 363.232 636.062 359.303 638.306 363.793C640.551 368.283 644.48 369.405 641.112 370.528C637.745 371.65 617.542 354.252 601.828 358.742C586.114 363.232 578.257 359.865 578.257 359.865L571.211 298.967C570.936 296.634 571.25 294.269 572.123 292.088C572.997 289.907 574.403 287.98 576.213 286.482C579.73 283.588 584.396 280.46 588.92 279.612C597.899 277.928 598.272 277.006 598.272 277.006L600.144 280.734Z" fill="#D0CDE1"/>
<path d="M582.186 378.946C582.186 378.946 587.236 407.567 593.971 403.639C600.706 399.71 592.287 378.946 592.287 378.946H582.186Z" fill="#FFB9B9"/>
<path d="M605.63 382.649C605.63 382.649 596.878 410.364 604.666 409.994C612.454 409.623 614.588 387.319 614.588 387.319L605.63 382.649Z" fill="#FFB9B9"/>
<path d="M574.609 480.244C574.609 480.244 570.681 475.754 568.436 481.927C566.191 488.101 560.018 495.958 560.018 495.958C560.018 495.958 546.549 511.11 556.089 511.671C565.63 512.233 579.099 498.202 579.099 498.202L594.813 483.611C594.813 483.611 589.605 470.927 587.158 470.815C584.711 470.703 585.272 485.856 574.609 480.244Z" fill="#2F2E41"/>
<path d="M611.088 526.824C611.088 526.824 607.133 527.979 607.427 523.192C607.427 523.192 593.129 530.753 597.058 536.365C600.986 541.977 605.476 547.589 605.476 547.589C605.476 547.589 626.24 559.374 627.924 556.568C629.608 553.762 629.608 548.15 628.485 545.905C627.363 543.66 621.751 539.732 623.434 536.365C625.118 532.997 622.873 524.018 620.067 524.018C617.261 524.018 611.088 526.824 611.088 526.824Z" fill="#2F2E41"/>
<path d="M589.661 237.005C589.661 237.005 595.077 225.27 605.457 227.978C615.838 230.686 621.706 234.748 622.157 238.81C622.608 242.872 621.931 248.965 621.931 248.965C621.931 248.965 620.803 240.615 613.582 242.421C606.36 244.226 595.077 242.872 595.077 242.872L593.271 259.12C593.271 259.12 591.24 256.186 588.984 257.992C586.727 259.797 582.439 240.615 589.661 237.005Z" fill="#2F2E41"/>
<path d="M639.429 295.326C639.429 295.326 625.96 331.804 627.082 336.294C628.205 340.783 627.082 341.345 625.399 342.467C623.715 343.59 619.225 355.375 619.225 355.375C619.225 355.375 616.419 362.109 614.175 363.793C611.93 365.477 611.93 369.966 611.93 369.966C611.93 369.966 606.318 375.578 607.44 376.701C608.562 377.823 608.562 379.507 606.318 381.19C604.073 382.874 601.828 385.119 602.95 385.68C604.073 386.241 611.93 392.415 614.174 391.853C616.419 391.292 613.052 389.047 615.858 387.925C618.664 386.803 620.348 385.119 619.225 384.558C618.103 383.996 614.736 383.996 618.103 382.874C621.47 381.752 633.256 374.456 637.184 365.477C641.113 356.497 659.935 302.17 648.56 294.539C648.56 294.539 643.919 288.591 639.429 295.326Z" fill="#D0CDE1"/>
<path d="M577.135 289.152L576.907 289.247C574.787 290.131 572.914 291.519 571.452 293.289C569.989 295.06 568.979 297.16 568.511 299.409C567.285 305.275 566.08 313.758 567.033 321.702C568.717 335.733 569.839 341.906 572.084 346.396C574.329 350.885 574.89 349.202 574.329 352.569C573.767 355.936 570.961 353.13 573.767 357.62C576.574 362.109 578.257 360.987 577.135 363.232C576.012 365.477 574.329 365.477 576.574 368.283C578.818 371.089 578.818 372.211 579.38 373.334C579.941 374.456 581.624 382.874 581.624 382.874C581.624 382.874 590.604 380.068 595.655 381.19C595.655 381.19 591.165 373.334 592.287 371.65C593.41 369.966 595.093 369.405 593.41 367.721C591.726 366.038 588.92 366.599 591.726 364.915C594.532 363.232 589.481 345.834 589.481 345.834L577.135 289.152Z" fill="#D0CDE1"/>
<path d="M469.665 477.536H449.218L458.54 161.798L469.665 477.536Z" fill="#3F3D56"/>
<path d="M460.344 221.638L482.295 191.267L460.043 229.155L457.637 224.946L460.344 221.638Z" fill="#3F3D56"/>
<path d="M457.938 252.31L435.987 221.939L458.239 259.827L460.644 255.617L457.938 252.31Z" fill="#3F3D56"/>
<path d="M469.201 313.304L459.305 319.017L462.312 324.226L472.208 318.512L469.201 313.304Z" fill="#3F3D56"/>
<path d="M123.488 449.457C128.414 467.668 145.288 478.946 145.288 478.946C145.288 478.946 154.174 460.699 149.248 442.489C144.321 424.278 127.448 413 127.448 413C127.448 413 118.561 431.247 123.488 449.457Z" fill="#3F3D56"/>
<path d="M131.783 445.265C145.301 458.424 146.952 478.653 146.952 478.653C146.952 478.653 126.687 477.546 113.169 464.387C99.6511 451.228 98 431 98 431C98 431 118.266 432.106 131.783 445.265Z" fill="#0096FF"/>
<path d="M246.448 479.633C233.227 479.633 220.303 475.712 209.31 468.367C198.318 461.022 189.75 450.582 184.69 438.368C179.631 426.153 178.307 412.713 180.887 399.746C183.466 386.779 189.832 374.868 199.181 365.52C208.529 356.171 220.44 349.805 233.407 347.226C246.374 344.646 259.814 345.97 272.029 351.029C284.243 356.089 294.683 364.657 302.028 375.649C309.373 386.642 313.294 399.566 313.294 412.787C313.274 430.509 306.225 447.5 293.693 460.032C281.161 472.564 264.17 479.613 246.448 479.633ZM246.448 347.41C233.518 347.41 220.878 351.245 210.127 358.428C199.375 365.612 190.996 375.822 186.048 387.768C181.1 399.714 179.805 412.859 182.327 425.541C184.85 438.223 191.077 449.872 200.22 459.015C209.363 468.158 221.012 474.385 233.694 476.907C246.375 479.43 259.52 478.135 271.466 473.187C283.412 468.239 293.623 459.859 300.806 449.108C307.99 438.357 311.824 425.717 311.824 412.787C311.805 395.454 304.911 378.837 292.655 366.58C280.398 354.324 263.781 347.43 246.448 347.41V347.41Z" fill="#2F2E41"/>
<path d="M452.127 479.633C438.906 479.633 425.982 475.712 414.99 468.367C403.997 461.022 395.429 450.582 390.37 438.368C385.31 426.153 383.986 412.713 386.566 399.746C389.145 386.779 395.511 374.868 404.86 365.52C414.209 356.171 426.119 349.805 439.086 347.226C452.053 344.646 465.493 345.97 477.708 351.029C489.922 356.089 500.362 364.657 507.707 375.649C515.052 386.642 518.973 399.566 518.973 412.787C518.953 430.509 511.904 447.5 499.372 460.032C486.84 472.564 469.85 479.613 452.127 479.633ZM452.127 347.41C439.197 347.41 426.557 351.245 415.806 358.428C405.055 365.612 396.675 375.822 391.727 387.768C386.779 399.714 385.484 412.859 388.007 425.541C390.529 438.223 396.756 449.872 405.899 459.015C415.042 468.158 426.691 474.385 439.373 476.907C452.055 479.43 465.2 478.135 477.146 473.187C489.092 468.239 499.302 459.859 506.486 449.108C513.669 438.357 517.504 425.717 517.504 412.787C517.484 395.454 510.59 378.836 498.334 366.58C486.078 354.324 469.46 347.43 452.127 347.41V347.41Z" fill="#2F2E41"/>
<path d="M246.448 417.194C248.882 417.194 250.855 415.221 250.855 412.787C250.855 410.353 248.882 408.38 246.448 408.38C244.014 408.38 242.04 410.353 242.04 412.787C242.04 415.221 244.014 417.194 246.448 417.194Z" fill="#2F2E41"/>
<path d="M453.596 417.194C456.03 417.194 458.004 415.221 458.004 412.787C458.004 410.353 456.03 408.38 453.596 408.38C451.162 408.38 449.189 410.353 449.189 412.787C449.189 415.221 451.162 417.194 453.596 417.194Z" fill="#2F2E41"/>
<path d="M253 406.464L251.649 405.888L290.041 315.814L398.911 318.035L399.122 318.366L452.746 402.107L451.509 402.899L398.096 319.489L291.003 317.303L253 406.464Z" fill="#2F2E41"/>
<path d="M367.376 423.206L395.593 323.704L397.007 324.104L369.396 421.467L443.22 412.058L443.405 413.516L367.376 423.206Z" fill="#2F2E41"/>
<path d="M287.374 338.081L286.325 339.11L361.985 416.24L363.034 415.211L287.374 338.081Z" fill="#2F2E41"/>
<path d="M402.933 300.204L398.533 316.366L399.95 316.752L404.351 300.59L402.933 300.204Z" fill="#2F2E41"/>
<path d="M292.708 311.579L291.274 311.254L294.744 295.991H282.442V286.441H283.911V294.522H296.584L292.708 311.579Z" fill="#2F2E41"/>
<path d="M376.467 285.707C376.467 285.707 376.467 281.299 386.016 283.503C395.565 285.707 424.948 291.583 427.152 290.849C429.356 290.114 428.621 295.256 419.072 297.46C409.522 299.663 398.504 294.521 396.3 293.052C394.096 291.583 376.467 285.707 376.467 285.707Z" fill="#2F2E41"/>
<path d="M368.386 437.028C365.481 437.028 362.64 436.166 360.224 434.552C357.808 432.937 355.925 430.643 354.813 427.958C353.701 425.274 353.41 422.32 353.977 419.47C354.544 416.62 355.943 414.003 357.998 411.948C360.053 409.893 362.67 408.494 365.52 407.927C368.37 407.36 371.324 407.651 374.008 408.763C376.693 409.875 378.987 411.758 380.602 414.174C382.216 416.59 383.078 419.431 383.078 422.336C383.073 426.231 381.524 429.966 378.77 432.72C376.016 435.474 372.281 437.023 368.386 437.028V437.028ZM368.386 409.114C365.771 409.114 363.215 409.89 361.04 411.342C358.866 412.795 357.171 414.86 356.17 417.276C355.17 419.692 354.908 422.351 355.418 424.916C355.928 427.481 357.188 429.837 359.037 431.686C360.886 433.535 363.242 434.794 365.807 435.304C368.372 435.815 371.03 435.553 373.446 434.552C375.862 433.551 377.927 431.857 379.38 429.682C380.833 427.508 381.608 424.951 381.608 422.336C381.604 418.831 380.21 415.47 377.731 412.991C375.253 410.512 371.892 409.118 368.386 409.114Z" fill="#2F2E41"/>
<path d="M298.665 286.077L276.503 278.242C275.355 277.836 274.096 278.438 273.69 279.585C273.285 280.733 273.886 281.992 275.034 282.397L297.196 290.233C298.343 290.638 299.602 290.037 300.008 288.89C300.413 287.742 299.812 286.483 298.665 286.077Z" fill="#2F2E41"/>
<path d="M688 479H94V480H688V479Z" fill="#2F2E41"/>
</svg>
